HIERARCHY
ROOT hip
{
	OFFSET 0.000000 0.000000 0.000000 
	CHANNELS 6 Xposition Yposition Zposition Xrotation Zrotation Yrotation
	JOINT abdomen
	{
		OFFSET 0.000000 3.402643 0.000000 
		CHANNELS 3 Xrotation Zrotation Yrotation
		JOINT chest
		{
			OFFSET 0.000000 8.438565 -0.680529 
			CHANNELS 3 Xrotation Zrotation Yrotation
			JOINT neck
			{
				OFFSET 0.000000 10.207942 -0.272212 
				CHANNELS 3 Xrotation Zrotation Yrotation
				JOINT head
				{
					OFFSET 0.000000 3.130431 0.000000 
					CHANNELS 3 Xrotation Zrotation Yrotation
					End Site
					{
						OFFSET 0.000000 3.130435 0.000000 
					}
				}
			}
			JOINT lCollar
			{
				OFFSET 3.470700 6.669187 -0.816635 
				CHANNELS 3 Yrotation Zrotation Xrotation
				JOINT lShldr
				{
					OFFSET 3.198488 0.000000 0.000000 
					CHANNELS 3 Zrotation Yrotation Xrotation
					JOINT lForeArm
					{
						OFFSET 10.139888 0.000000 0.000000 
						CHANNELS 3 Yrotation Zrotation Xrotation
						JOINT lHand
						{
							OFFSET 8.370511 0.000000 0.000000 
							CHANNELS 3 Zrotation Yrotation Xrotation
							End Site
							{
								OFFSET 4.083176 0.000000 0.000000 
							}
						}
					}
				}
			}
			JOINT rCollar
			{
				OFFSET -3.470700 6.669187 -0.816635 
				CHANNELS 3 Yrotation Zrotation Xrotation
				JOINT rShldr
				{
					OFFSET -3.198488 0.000000 0.000000 
					CHANNELS 3 Zrotation Yrotation Xrotation
					JOINT rForeArm
					{
						OFFSET -10.139888 0.000000 0.000000 
						CHANNELS 3 Yrotation Zrotation Xrotation
						JOINT rHand
						{
							OFFSET -8.370511 0.000000 0.000000 
							CHANNELS 3 Zrotation Yrotation Xrotation
							End Site
							{
								OFFSET -4.083176 0.000000 0.000000 
							}
						}
					}
				}
			}
		}
	}
	JOINT lThigh
	{
		OFFSET 5.308129 -1.633274 1.361059 
		CHANNELS 3 Xrotation Zrotation Yrotation
		JOINT lShin
		{
			OFFSET -2.041588 -20.007561 0.000000 
			CHANNELS 3 Xrotation Zrotation Yrotation
			JOINT lFoot
			{
				OFFSET 0.000000 -19.190928 -1.224953 
				CHANNELS 3 Xrotation Yrotation Zrotation
				End Site
				{
					OFFSET 0.000000 -2.449906 4.627600 
				}
			}
		}
	}
	JOINT rThigh
	{
		OFFSET -5.308129 -1.633274 1.361059 
		CHANNELS 3 Xrotation Zrotation Yrotation
		JOINT rShin
		{
			OFFSET 2.041588 -20.007561 0.000000 
			CHANNELS 3 Xrotation Zrotation Yrotation
			JOINT rFoot
			{
				OFFSET 0.000000 -19.190928 -1.224953 
				CHANNELS 3 Xrotation Yrotation Zrotation
				End Site
				{
					OFFSET 0.000000 -2.449906 4.627600 
				}
			}
		}
	}
}
MOTION
Frames: 6
Frame Time: 0.016667
0.458882 51.225796 -135.758057 1.071679 -1.093681 0.644600 42.142006 0.501979 5.525750 1.351128 2.837820 -8.639429 -22.285269 0.129337 -0.059075 -4.641659 -5.310797 7.895161 -9.819904 -8.906577 -0.460735 -57.324959 -13.299109 5.115246 -101.049751 2.522910 0.840329 -31.190891 -6.002188 25.252083 8.115902 4.926210 -0.263369 64.397636 -10.514493 -22.046803 100.494591 5.000000 -6.334737 20.391624 -5.057408 5.217027 25.419746 8.084514 4.616228 21.685165 -7.837289 -3.689832 -33.541100 14.974279 -5.066352 -44.333103 0.019455 2.936935 60.817009 6.979017 14.424612 -12.352545 -20.425356 0.819034 
0.423329 51.175076 -132.189545 1.949582 -1.484371 0.136673 40.910202 1.721623 4.204402 1.360051 3.447184 -9.375893 -22.121756 0.700801 -0.264044 -4.483089 -5.864684 11.142980 -9.329369 -7.287685 -0.375831 -57.307255 -12.476360 3.770357 -101.921967 1.535999 0.691731 -30.909912 -5.276058 25.679995 8.725954 3.648524 -0.196461 65.304138 -11.616517 -23.058596 100.909836 5.000000 -6.800150 20.294500 -5.906225 6.455855 29.421507 7.715119 4.669111 18.144064 -6.512515 -2.593715 -26.890068 14.717154 -6.975247 -45.577198 0.311307 3.247246 52.631542 8.003907 11.788482 -13.551114 -18.692673 1.521390 
0.410588 51.078678 -128.552628 2.840588 -0.322263 0.214840 39.441124 1.717326 1.980585 1.547217 3.928891 -10.142174 -21.935654 1.464771 -0.567420 -4.553522 -6.260378 13.814172 -8.833608 -6.058878 -0.311297 -57.305683 -11.031129 2.206575 -102.415382 -0.158267 0.352312 -30.938602 -4.481038 26.165831 9.066509 3.454954 -0.176732 66.037605 -12.495880 -24.290901 100.345543 5.000000 -6.636847 19.631140 -6.406521 7.871839 30.930389 6.454874 2.057578 17.285997 -5.794575 -2.134448 -16.101267 13.714100 -9.123452 -45.593605 -0.859641 3.868529 44.842606 8.717709 9.672720 -14.608014 -17.268860 2.108291 
0.413060 50.951847 -124.870125 3.744429 1.855317 0.732987 37.894562 0.835711 -0.852731 1.852504 4.321919 -10.918591 -21.740101 2.369080 -0.922056 -4.790225 -6.532854 16.093061 -8.340477 -5.103134 -0.261967 -57.364315 -9.181868 0.501685 -102.669754 -2.342629 -0.118365 -31.174988 -3.629536 26.677742 9.234296 3.981593 -0.203987 66.643730 -13.243843 -25.667189 99.070717 5.000000 -5.979354 18.604446 -6.641032 9.425001 30.902887 4.647438 -2.265321 18.192682 -5.556938 -2.113697 -2.654748 12.037810 -11.163043 -44.827938 -3.086051 4.713925 37.302055 9.249079 7.924120 -15.485710 -15.855726 2.753950 
0.420093 50.795635 -121.200829 4.417284 3.905404 1.194625 36.739735 -0.026109 -3.330493 2.121496 4.657200 -11.489163 -21.537098 3.087489 -1.199387 -5.031752 -6.848286 18.003607 -7.966435 -4.420457 -0.225933 -57.515724 -7.191426 -1.344756 -102.674187 -4.783076 -0.652693 -31.447939 -2.914615 27.071310 9.335200 4.613925 -0.246374 67.239059 -13.869460 -27.070940 97.288033 5.000000 -4.927164 17.758324 -6.643089 10.761476 30.504047 2.928717 -5.981683 20.536613 -5.528347 -2.384128 8.719274 9.846577 -12.886300 -43.590378 -5.146328 5.835600 30.497242 9.652704 6.373691 -15.906855 -14.985370 3.257672 
0.445360 50.521915 -117.584427 4.113853 5.447685 1.364269 36.815865 -0.545683 -4.443371 2.262908 4.746439 -11.235920 -21.329983 3.042161 -1.172804 -5.311105 -7.372506 18.369041 -8.046321 -4.839816 -0.247539 -57.919716 -4.622007 -3.747607 -101.620323 -5.000000 -1.287540 -31.941505 -2.687898 27.011377 9.155062 5.725741 -0.304760 67.721565 -14.042984 -28.481024 93.622391 5.000000 -2.470525 17.647001 -5.892838 11.188766 28.085964 1.542777 -7.252559 28.711777 -6.192485 -3.875130 12.195897 6.710270 -14.348981 -40.447617 -6.679504 8.198426 26.621002 9.985191 5.822335 -14.473415 -15.990139 3.250314 
